<?xml version="1.0" encoding="utf-8"?>
<!-- Svg Vector Icons : http://www.onlinewebfonts.com/icon -->
<!DOCTYPE svg PUBLIC "-//W3C//DTD SVG 1.1//EN" "http://www.w3.org/Graphics/SVG/1.1/DTD/svg11.dtd">
<svg version="1.1" xmlns="http://www.w3.org/2000/svg" xmlns:xlink="http://www.w3.org/1999/xlink" x="0px" y="0px" viewBox="0 0 1000 1000" enable-background="new 0 0 1000 1000" xml:space="preserve">
<metadata> Svg Vector Icons : http://www.onlinewebfonts.com/icon </metadata>
<g><path d="M285.6,349.8v392.3c0,43.9,35.6,79.5,79.5,79.5h226.8l0.8,30.6h-17.4c-44.7,0-95.9,24.1-105.2,46.7c-1.4,3.2-0.9,7,1,9.9c2,2.9,5.3,4.7,8.9,4.7h315.4c3.6,0,6.9-1.8,8.9-4.7c2-2.9,2.4-6.6,1.1-9.9c-9.2-22.6-60.5-46.7-105.2-46.7h-16.6v-30.6h226.8c43.9,0,79.5-35.6,79.5-79.5V349.8c0-43.9-35.6-79.5-79.5-79.5H365.1C321.2,270.3,285.6,305.9,285.6,349.8L285.6,349.8z M435.7,775.6c0-10.2,8.2-18.4,18.4-18.4c10.2,0,18.4,8.2,18.4,18.4c0,10.2-8.2,18.4-18.4,18.4C443.9,794,435.7,785.8,435.7,775.6z M377.5,375.5c0-7.3,5.9-13.3,13.3-13.3h494.1c7.3,0,13.2,5.9,13.2,13.3v341c0,7.3-5.9,13.2-13.2,13.2H390.8c-7.3,0-13.3-5.9-13.3-13.2V375.5L377.5,375.5z M10,178.4v643.1c0,50.7,41.1,91.9,91.9,91.9h245c40,0,73.6-25.6,86.2-61.2h-68c-79.5,0-110.1-30.6-110.1-110.1V331.6H101.9v-30.6H255c28.1-54.9,61.2-61.2,110.1-61.2h73.7v-61.2c0-50.7-41.1-91.9-91.9-91.9h-245C51.1,86.6,10,127.7,10,178.4L10,178.4z M128,699.1c0-19.4,15.7-35.2,35.2-35.2s35.2,15.8,35.2,35.2c0,19.5-15.7,35.2-35.2,35.2S128,718.5,128,699.1L128,699.1z M101.9,392.8h61.2v30.6h-61.2V392.8z M101.9,209.1h245v30.6h-245V209.1z"/></g>
</svg>